<svg width="284" height="145" viewBox="0 0 284 145" fill="none" xmlns="http://www.w3.org/2000/svg">
<path d="M88 9L8.9604 75.6897C8.46901 76.1043 8.49092 76.8682 9.00527 77.254L88 136.5" stroke="#D9A273" stroke-width="17" stroke-linecap="round"/>
<path d="M196 9L275.04 75.6897C275.531 76.1043 275.509 76.8682 274.995 77.254L196 136.5" stroke="#D9A273" stroke-width="17" stroke-linecap="round"/>
<path d="M142 61.5L134.226 51.7824C130.291 46.8634 124.333 44 118.034 44H117.328C110.323 44 103.855 47.7534 100.38 53.8353V53.8353C97.5957 58.7076 97.0431 64.5424 98.8631 69.8506L100.333 74.1388C101.436 77.3555 103.086 80.3576 105.21 83.0129L109.592 88.4898C112.523 92.1539 115.816 95.5135 119.421 98.5175L126 104L142 116.5" stroke="#D9A273" stroke-width="17" stroke-linecap="round"/>
<path d="M144 61.5L151.774 51.7824C155.709 46.8634 161.667 44 167.966 44H168.672C175.677 44 182.145 47.7534 185.62 53.8353V53.8353C188.404 58.7076 188.957 64.5424 187.137 69.8506L185.667 74.1388C184.564 77.3555 182.914 80.3576 180.79 83.0129L176.408 88.4898C173.477 92.1539 170.184 95.5135 166.579 98.5175L160 104L144 116.5" stroke="#D9A273" stroke-width="17" stroke-linecap="round"/>
</svg>
